<?xml version="1.0" encoding="UTF-8"?>
<svg width="53px" height="54px" viewBox="0 0 53 54" version="1.1" xmlns="http://www.w3.org/2000/svg" xmlns:xlink="http://www.w3.org/1999/xlink">
    <!-- Generator: sketchtool 61.2 (101010) - https://sketch.com -->
    <title>B302A677-A00D-4169-932A-C204B4FCAF20@2x</title>
    <desc>Created with sketchtool.</desc>
    <g id="Page-1" stroke="none" stroke-width="1" fill="none" fill-rule="evenodd">
        <g id="02" transform="translate(-154.000000, -527.000000)" fill="#FFFFFF" fill-rule="nonzero">
            <path d="M180.371197,557 C181.475766,557 182.371197,557.895431 182.371197,559 L182.371197,559 L182.371197,579 C182.371197,580.104569 181.475766,581 180.371197,581 C179.266627,581 178.371197,580.104569 178.371197,579 L178.371197,579 L178.371197,559 C178.371197,557.895431 179.266627,557 180.371197,557 Z M188.433643,552.75419 C189.422167,552.261347 190.623052,552.663176 191.115895,553.6517 C191.937483,555.299608 192.371197,557.120912 192.371197,559 C192.371197,567.018868 191.513939,573.87693 189.7852,579.580164 C189.464784,580.637239 188.348107,581.234419 187.291032,580.914003 C186.233957,580.593587 185.636777,579.47691 185.957193,578.419836 C187.561788,573.126162 188.371197,566.650891 188.371197,559 C188.371197,557.743841 188.082871,556.533066 187.536133,555.436442 C187.04329,554.447918 187.445119,553.247033 188.433643,552.75419 Z M200.371197,560.216553 C201.475766,560.216553 202.371197,561.111983 202.371197,562.216553 C202.371197,562.664847 202.376481,562.92621 202.405413,564.10189 C202.552563,570.081558 202.210609,573.744436 200.49986,578.030647 C200.246154,578.666297 199.965378,579.290052 199.656349,579.901794 C199.158302,580.887706 197.955315,581.283199 196.969403,580.785152 C195.983491,580.287105 195.587998,579.084119 196.086044,578.098206 C196.341665,577.59219 196.574256,577.075481 196.784838,576.547877 C198.239875,572.90234 198.54131,569.673489 198.406623,564.200294 C198.382291,563.211522 198.374111,562.84722 198.3719,562.479441 L198.371197,562.216553 C198.371197,561.111983 199.266627,560.216553 200.371197,560.216553 Z M180.371197,547 C181.152158,547 181.924639,547.07487 182.680767,547.222433 C183.764885,547.434005 184.472222,548.48437 184.26065,549.568487 C184.049078,550.652605 182.998713,551.359942 181.914596,551.14837 C181.410552,551.050003 180.894641,551 180.371197,551 C175.952919,551 172.371197,554.581722 172.371197,559 C172.371197,565.668711 173.18366,572.168423 174.808484,578.503092 C175.082919,579.573026 174.438039,580.662852 173.368105,580.937287 C172.298171,581.211722 171.208344,580.566842 170.933909,579.496908 C169.225399,572.835972 168.371197,566.00235 168.371197,559 C168.371197,552.372583 173.74378,547 180.371197,547 Z M161.655467,547.430945 C162.237061,546.491892 163.46979,546.202114 164.408843,546.783708 C165.347897,547.365302 165.637675,548.598031 165.056081,549.537085 C163.309649,552.356909 162.371197,555.606874 162.371197,559 C162.371197,566.393283 163.949525,572.706599 167.089339,577.976288 C167.65472,578.925192 167.343813,580.152762 166.394909,580.718143 C165.446005,581.283523 164.218435,580.972617 163.653054,580.023713 C160.126201,574.104437 158.371197,567.084419 158.371197,559 C158.371197,554.857335 159.519993,550.878923 161.655467,547.430945 Z M180.371197,537 C189.784427,537 198.062051,542.966352 201.132463,551.705505 C201.498602,552.747626 200.95061,553.889246 199.908489,554.255385 C198.866368,554.621524 197.724748,554.073532 197.358609,553.031411 C194.846811,545.882212 188.073306,541 180.371197,541 C176.884214,541 173.548965,541.991267 170.678134,543.829839 C169.74797,544.425547 168.511006,544.154415 167.915298,543.224251 C167.319591,542.294086 167.590722,541.057122 168.520887,540.461415 C172.030942,538.213463 176.113797,537 180.371197,537 Z M180.371197,527 C183.115634,527 185.816236,527.345967 188.426359,528.022892 C189.495556,528.300185 190.137522,529.39173 189.86023,530.460927 C189.582938,531.530125 188.491392,532.17209 187.422195,531.894798 C185.139325,531.302744 182.776116,531 180.371197,531 C171.166982,531 162.235634,536.535701 157.766249,544.940465 C157.247641,545.915718 156.036626,546.285902 155.061373,545.767293 C154.08612,545.248685 153.715936,544.037671 154.234545,543.062417 C159.38859,533.370136 169.666223,527 180.371197,527 Z M193.339496,531.866037 C193.881911,530.903821 195.101656,530.563506 196.063871,531.105921 C199.898683,533.267661 203.253195,536.2031 205.90847,539.713858 C206.574772,540.594831 206.400747,541.849147 205.519773,542.515449 C204.6388,543.181752 203.384485,543.007727 202.718182,542.126753 C200.393307,539.052845 197.4559,536.482403 194.099612,534.590413 C193.137396,534.047998 192.79708,532.828253 193.339496,531.866037 Z" id="fingerprint-icon"></path>
        </g>
    </g>
</svg>